<?xml version="1.0" encoding="UTF-8"?><svg id="Layer_1" xmlns="http://www.w3.org/2000/svg" xmlns:xlink="http://www.w3.org/1999/xlink" viewBox="0 0 654.43 148.3"><defs><style>.cls-1{fill:url(#linear-gradient);}.cls-2{fill:#0093d0;}.cls-3{fill:#fff;}.cls-4{fill:url(#linear-gradient-2);}</style><linearGradient id="linear-gradient" x1="348.68" y1="-196.05" x2="453.55" y2="-91.19" gradientTransform="translate(-69.47 -326.96) rotate(90)" gradientUnits="userSpaceOnUse"><stop offset="0" stop-color="#5db7e1"/><stop offset=".14" stop-color="#57b5e0"/><stop offset=".32" stop-color="#46b0dd"/><stop offset=".53" stop-color="#2ba7da"/><stop offset=".75" stop-color="#069bd4"/><stop offset=".79" stop-color="#009ad4"/></linearGradient><linearGradient id="linear-gradient-2" x1="74.15" y1="115.06" x2="74.15" y2="30.44" gradientUnits="userSpaceOnUse"><stop offset="0" stop-color="#6dbce3"/><stop offset=".13" stop-color="#67bae2"/><stop offset=".3" stop-color="#56b5df"/><stop offset=".49" stop-color="#3bacdc"/><stop offset=".69" stop-color="#16a0d7"/><stop offset=".8" stop-color="#009ad4"/></linearGradient></defs><path class="cls-2" d="m231.97,107.84c-5.5,0-10.4-.48-14.7-1.42-4.3-.95-8.02-2.13-11.16-3.54l3.32-15.42h1.81c2.96,2.71,6.45,4.8,10.45,6.28,4,1.48,8.3,2.22,12.91,2.22s8.19-.64,10.41-1.92c2.22-1.28,3.32-3.12,3.32-5.5,0-.89-.18-1.66-.54-2.31-.36-.65-1.06-1.29-2.09-1.92-1.04-.63-2.45-1.26-4.25-1.88-1.8-.62-4.12-1.33-6.97-2.14-3.14-.86-5.95-1.8-8.44-2.81-2.49-1.01-4.61-2.2-6.37-3.58-1.76-1.41-3.09-3.04-3.99-4.88-.91-1.84-1.36-4.04-1.36-6.61,0-6.45,2.84-11.59,8.53-15.44,5.68-3.84,13.46-5.76,23.34-5.76,4.75,0,9.23.39,13.45,1.17,4.22.78,7.79,1.83,10.73,3.15l-3.15,14.81h-1.77c-2.25-2.06-5.2-3.78-8.87-5.17-3.67-1.39-7.68-2.08-12.03-2.08s-7.56.62-9.89,1.84c-2.33,1.23-3.5,2.93-3.5,5.11,0,1.01.17,1.84.52,2.5.35.66,1.05,1.31,2.12,1.94.92.58,2.38,1.2,4.36,1.88,1.99.68,4.32,1.38,7,2.09,7.2,1.93,12.33,4.19,15.42,6.78,3.08,2.59,4.62,6.1,4.62,10.54,0,3.71-.84,6.98-2.5,9.8-1.67,2.82-3.97,5.11-6.91,6.87-3.08,1.87-6.58,3.24-10.49,4.1-3.92.86-8.35,1.3-13.3,1.3Z"/><path class="cls-2" d="m305.98,106.68h-37.65l2.63-11.4h10.49l9.6-41.5h-10.49l2.63-11.4h37.65l-2.63,11.4h-10.49l-9.6,41.5h10.49l-2.63,11.4Z"/><path class="cls-2" d="m351.19,108.02c-9.13,0-16.27-2.16-21.44-6.48-5.17-4.32-7.75-10.45-7.75-18.39,0-12.38,3.99-22.47,11.96-30.29,7.97-7.82,18.09-11.72,30.35-11.72,4.63,0,8.93.4,12.89,1.19,3.96.79,8.07,2.3,12.33,4.51l-3.67,15.07h-1.86c-3.46-3.28-6.72-5.56-9.8-6.84-3.08-1.28-6.48-1.92-10.19-1.92s-7.18.77-10.23,2.31c-3.05,1.54-5.66,3.62-7.82,6.23-2.04,2.47-3.64,5.41-4.79,8.8-1.15,3.39-1.73,6.94-1.73,10.65,0,5.15,1.41,8.94,4.24,11.37,2.82,2.43,7.42,3.64,13.79,3.64.63,0,1.33-.01,2.08-.04.75-.03,1.44-.07,2.08-.13l2.91-12.57h-12.82l2.81-12.13h29.66l-7.34,31.74c-3.83,1.32-7.91,2.49-12.24,3.5-4.33,1.01-8.8,1.51-13.41,1.51Z"/><path class="cls-2" d="m455.12,60.17c0,7.66-3.17,13.83-9.52,18.52s-15.22,7.04-26.63,7.04h-6.31l-4.83,20.94h-16.66l14.83-64.29h23.11c4.2,0,7.87.29,10.99.86,3.12.58,5.83,1.57,8.1,2.98,2.25,1.41,3.96,3.25,5.14,5.5,1.18,2.26,1.77,5.07,1.77,8.44Zm-17.7,1.6c0-2.5-.91-4.36-2.73-5.57-1.82-1.21-4.51-1.81-8.09-1.81h-6.71l-4.44,19.26h5.97c5.04,0,8.97-1.03,11.78-3.09,2.81-2.06,4.21-4.99,4.21-8.79Z"/><path class="cls-2" d="m502.4,106.68h-46.42l14.83-64.29h16.66l-11.96,51.86h29.78l-2.89,12.44Z"/><path class="cls-2" d="m572.44,106.68h-16.74l-1.48-13.13h-23.56l-7.52,13.13h-17.37l38.56-64.29h19.17l8.94,64.29Zm-19.43-24.66l-2.63-22.95-13.16,22.95h15.79Z"/><path class="cls-2" d="m639.6,106.68h-14.18l-18.88-44.52-10.27,44.52h-15.29l14.83-64.29h18.56l16.17,37.22,8.54-37.22h15.33l-14.83,64.29Z"/><rect class="cls-1" x="21.72" y="21.72" width="104.86" height="104.86" transform="translate(-30.71 74.15) rotate(-45)"/><path class="cls-3" d="m119.61,74.15c0,25.11-20.35,45.46-45.46,45.46s-45.46-20.35-45.46-45.46,20.36-45.46,45.46-45.46,45.46,20.35,45.46,45.46Z"/><path class="cls-4" d="m115.07,74.15c0,22.6-18.32,40.91-40.92,40.91s-40.92-18.31-40.92-40.91,18.32-40.92,40.92-40.92,40.92,18.32,40.92,40.92Z"/><path class="cls-3" d="m50.33,82.12c-.42.35-.8.66-1.13.94-.33.29-.78.57-1.34.84-.55.27-1.08.47-1.6.6-.52.13-1.24.21-2.18.21-1.74,0-3.18-.58-4.33-1.75-1.15-1.17-1.72-2.64-1.72-4.42,0-1.47.29-2.64.87-3.55.58-.9,1.42-1.61,2.52-2.14,1.11-.54,2.43-.91,3.97-1.12,1.54-.21,3.19-.37,4.97-.49v-.1c0-1.09-.4-1.83-1.2-2.25-.8-.42-2-.62-3.6-.62-.72,0-1.57.13-2.53.4-.97.27-1.91.6-2.83,1.01h-.52v-4.77c.61-.18,1.59-.38,2.95-.62,1.36-.24,2.72-.36,4.1-.36,3.4,0,5.87.57,7.42,1.7,1.55,1.13,2.33,2.85,2.33,5.17v13.42h-6.15v-2.09Zm0-3.07v-4.08c-1.03.1-1.87.2-2.5.27-.64.08-1.27.23-1.88.45-.54.19-.95.47-1.25.85-.29.37-.44.88-.44,1.5,0,.92.25,1.55.74,1.89.49.34,1.22.51,2.18.51.53,0,1.07-.12,1.63-.36.56-.24,1.06-.59,1.51-1.03Z"/><path class="cls-3" d="m69.96,84.71c-1.63,0-3.12-.21-4.47-.62-1.35-.4-2.53-1.04-3.52-1.89-.99-.85-1.75-1.92-2.31-3.21-.55-1.29-.82-2.81-.82-4.57,0-1.88.3-3.48.9-4.81.6-1.32,1.4-2.4,2.43-3.26.98-.82,2.14-1.42,3.47-1.81,1.33-.39,2.72-.59,4.16-.59,1.09,0,2.18.13,3.27.38,1.09.25,2.18.65,3.29,1.2v5.27h-.79c-.25-.23-.55-.49-.91-.77-.36-.28-.75-.54-1.17-.78-.44-.25-.95-.45-1.51-.62-.56-.17-1.19-.25-1.88-.25-1.57,0-2.79.54-3.65,1.64-.86,1.09-1.29,2.55-1.29,4.4,0,1.97.46,3.44,1.38,4.41.92.97,2.14,1.46,3.66,1.46.77,0,1.45-.09,2.04-.27.59-.17,1.09-.38,1.51-.62.41-.25.76-.49,1.05-.76.29-.26.55-.49.76-.7h.79v5.25c-.35.15-.76.33-1.22.53-.46.19-.93.35-1.41.49-.6.17-1.16.29-1.68.37-.52.08-1.21.13-2.06.13Z"/><path class="cls-3" d="m103.14,84.2v-9.85c0-.97-.02-1.79-.05-2.46-.04-.66-.14-1.21-.32-1.63-.18-.42-.45-.73-.82-.92-.37-.2-.89-.29-1.56-.29-.47,0-.93.1-1.39.3-.46.21-.96.5-1.5.87v13.98h-6.15v-9.85c0-.96-.02-1.77-.06-2.45-.04-.67-.15-1.22-.33-1.64-.18-.42-.45-.73-.82-.92-.37-.2-.88-.29-1.54-.29-.5,0-1,.12-1.48.35-.48.24-.95.51-1.41.83v13.98h-6.15v-19.7h6.15v2.17c1-.86,1.95-1.52,2.84-2,.89-.48,1.89-.72,3-.72,1.21,0,2.26.29,3.17.86.91.57,1.61,1.43,2.09,2.56,1.18-1.1,2.3-1.94,3.34-2.53,1.05-.59,2.11-.89,3.18-.89.91,0,1.73.15,2.45.44.73.29,1.34.73,1.84,1.32.55.63.96,1.38,1.24,2.25.28.87.41,2.01.41,3.41v12.83h-6.15Z"/></svg>